<svg width="200" height="200" viewBox="0 0 200 200" fill="none" xmlns="http://www.w3.org/2000/svg"><g clip-path="url(#clip0_5196_191)"><path d="M152.254 71.917H47.326V158.292H152.253L152.254 71.917Z" fill="#71CF81"/><path d="M100.278 121.179H100.544C107.912 121.179 113.948 127.172 113.948 134.584V158.02H86.873V134.584C86.873 127.216 92.865 121.179 100.278 121.179Z" fill="#458E71"/><path d="M73.602 116.75H63.26C61.569 116.75 60.197 118.121 60.197 119.812V136.59C60.197 138.281 61.568 139.653 63.26 139.653H73.602C75.293 139.653 76.665 138.281 76.665 136.59V119.812C76.665 118.121 75.294 116.75 73.602 116.75Z" fill="#458E71"/><path d="M138.316 115.108H127.974C126.283 115.108 124.911 116.479 124.911 118.17V134.948C124.911 136.639 126.283 138.011 127.974 138.011H138.316C140.007 138.011 141.378 136.639 141.378 134.948V118.17C141.378 116.479 140.007 115.108 138.316 115.108Z" fill="#458E71"/><path d="M168.841 92.821H32L59.075 42H142.742L168.84 92.821H168.841Z" fill="#71CF81"/><path d="M126.092 92.821H73.672L80.774 42H119.878L126.092 92.821Z" fill="#61B97D"/><path d="M126.092 92.821H168.746L142.647 42H119.877L126.092 92.821Z" fill="#71CF81"/><path d="M32.261 92.819C34.081 102.85 42.869 110.441 53.433 110.441C63.997 110.441 72.741 102.85 74.605 92.819H32.261Z" fill="#458E71"/><path d="M73.672 92.819C75.936 102.85 86.81 110.441 99.904 110.441C112.998 110.441 123.873 102.85 126.136 92.819H73.672Z" fill="#458E71"/><path d="M126.091 92.819C127.955 102.85 136.789 110.441 147.397 110.441C158.005 110.441 166.837 102.85 168.701 92.819H126.091Z" fill="#458E71"/></g><defs><clipPath id="clip0_5196_191"><rect width="136.841" height="116.291" fill="white" transform="translate(32 42)"/></clipPath></defs></svg>