<svg xmlns="http://www.w3.org/2000/svg" viewBox="0 0 360 780" preserveAspectRatio="xMidYMid slice" aria-hidden="true">
  <defs>
    <filter id="ovoBlur" x="-20%" y="-20%" width="140%" height="140%">
      <feGaussianBlur stdDeviation="28" />
    </filter>
    <linearGradient id="ovoBase" x1="0" y1="0" x2="0.3" y2="1">
      <stop offset="0%" stop-color="#4a3498" />
      <stop offset="55%" stop-color="#3f2b96" />
      <stop offset="100%" stop-color="#2a1d6e" />
    </linearGradient>
  </defs>
  <rect width="360" height="780" fill="url(#ovoBase)" />
  <g filter="url(#ovoBlur)">
    <ellipse cx="190" cy="300" rx="210" ry="175" fill="#7e57c2" fill-opacity="0.72" />
    <ellipse cx="70" cy="170" rx="155" ry="130" fill="#9575cd" fill-opacity="0.48" />
    <ellipse cx="300" cy="430" rx="175" ry="150" fill="#673ab7" fill-opacity="0.55" />
    <ellipse cx="120" cy="520" rx="190" ry="120" fill="#5e35b1" fill-opacity="0.38" />
    <ellipse cx="260" cy="650" rx="200" ry="110" fill="#4527a0" fill-opacity="0.42" />
    <ellipse cx="180" cy="720" rx="240" ry="90" fill="#1a1147" fill-opacity="0.65" />
  </g>
  <path
    d="M-30 360 C80 250 180 290 280 330 C340 355 380 420 400 500"
    fill="none"
    stroke="#b39ddb"
    stroke-opacity="0.18"
    stroke-width="90"
    stroke-linecap="round"
  />
  <path
    d="M360 180 C280 260 220 220 120 280 C60 320 20 400 0 480"
    fill="none"
    stroke="#9575cd"
    stroke-opacity="0.14"
    stroke-width="70"
    stroke-linecap="round"
  />
</svg>
